<?xml version="1.0" encoding="UTF-8"?>
<svg id="Layer_1" data-name="Layer 1" xmlns="http://www.w3.org/2000/svg" viewBox="0 0 200.77 149.1">
  <defs>
    <style>
      .cls-1 {
        fill: #ffce00;
        opacity: .1;
      }

      .cls-2 {
        fill: #fff;
      }
    </style>
  </defs>
  <g>
    <path vector-effect="non-scaling-stroke" class="cls-2" d="m121.66,145.1c-8.71,0-17.23-5.58-24.65-16.15l-1.71-2.43-2.82.93c-4.23,1.39-8.28,2.1-12.01,2.1-6.98,0-13.13-2.38-18.79-7.29l-.2-.18c-1.4-1.21-3.75-3.25-4.01-4.44-2.53-11.27-11.16-11.91-17.46-12.37-7.56-.56-12.85-4.48-15.73-11.67-1.63-4.07-5.92-6.71-7.69-7.65-10.46-5.58-14.69-14.56-11.6-24.64,2.05-6.69,6.52-10.4,13.26-11.03,6.9-.64,9.76-4.11,11.93-9.11C39.66,19.29,64.51,4,90.63,4c4.35,0,8.68.43,12.88,1.26,4.93.98,9.71,3.25,14.77,5.65,2.85,1.35,5.79,2.75,8.8,3.92,2.52.98,4.82,1.48,6.84,1.48,1.08,0,2.1-.14,3.02-.43,3.19-.99,6.16-1.49,8.82-1.49,8.67,0,14.08,5.36,16.09,15.94.66,3.46,4.04,6.65,6.94,7.74,19.23,7.25,29.62,24.44,27.78,45.98-1.98,23.13-13.74,36.71-37.01,42.75-.18.05-.45.07-.79.07-.44,0-.95-.04-1.49-.08-.64-.05-1.36-.1-2.11-.1s-1.41.05-2.04.16c-2.37.4-5.58,1.38-7.44,3.73-7.48,9.49-15.8,14.51-24.04,14.51Z"/>
    <path vector-effect="non-scaling-stroke" d="m90.63,8c4.09,0,8.16.4,12.1,1.19,4.45.89,9.01,3.05,13.84,5.35,2.91,1.38,5.92,2.81,9.07,4.03,2.98,1.16,5.77,1.75,8.29,1.75,1.48,0,2.89-.2,4.2-.61,2.81-.87,5.38-1.31,7.64-1.31,2.67,0,9.75,0,12.16,12.69.96,5.07,5.49,9.24,9.46,10.74,17.46,6.58,26.88,22.24,25.2,41.9-1.83,21.42-12.26,33.51-33.81,39.16h0c-.29,0-.72-.03-1.19-.07-.71-.05-1.51-.11-2.41-.11-.96,0-1.85.07-2.71.22-3.06.52-7.27,1.84-9.91,5.19-4.67,5.92-12.09,12.99-20.9,12.99-9.28,0-16.75-7.86-21.38-14.45l-3.41-4.85-5.64,1.85c-3.83,1.26-7.45,1.9-10.76,1.9-5.98,0-11.27-2.07-16.16-6.31l-.2-.18c-.83-.72-2.32-2.01-2.83-2.71-3.31-13.76-14.78-14.61-20.97-15.06-5.99-.44-10.01-3.44-12.31-9.17-2.04-5.11-6.84-8.27-9.52-9.69-5.06-2.7-13.05-8.88-9.66-19.93,1.6-5.2,4.62-7.74,9.81-8.22,9.41-.88,12.98-6.31,15.23-11.51,8.86-20.47,32.2-34.76,56.77-34.76m0-8C63.19,0,36.8,15.83,26.51,39.59c-1.86,4.31-3.8,6.27-8.63,6.72-8.38.78-14.17,5.54-16.72,13.84-3.68,12,1.46,22.9,13.54,29.34,2.33,1.24,4.94,3.3,5.86,5.61,3.54,8.84,10.33,13.52,19.15,14.17,6.94.51,12.07,1.33,13.85,9.26.57,2.55,3.31,4.85,5.5,6.76,6.56,5.69,13.72,8.27,21.41,8.27,4.27,0,8.69-.8,13.26-2.3,8.37,11.92,18.11,17.85,27.93,17.85s18.77-5.36,27.18-16.03c1.01-1.29,3.21-1.96,4.97-2.26.45-.08.9-.1,1.37-.1,1.19,0,2.42.18,3.59.18.61,0,1.22-.05,1.79-.2,22.71-5.9,37.69-19.41,39.99-46.28,1.98-23.18-9.53-42.22-30.35-50.07-1.85-.7-4.07-2.91-4.42-4.74-2.39-12.58-9.44-19.19-20.02-19.19-3.05,0-6.39.55-10,1.66-.57.18-1.19.25-1.84.25-1.78,0-3.76-.57-5.39-1.21-8.13-3.16-15.85-8.09-24.24-9.77-4.54-.91-9.12-1.34-13.67-1.34h0Z"/>
  </g>
  <g>
    <path vector-effect="non-scaling-stroke" class="cls-1" d="m121.66,145.1c-8.71,0-17.23-5.58-24.65-16.15l-1.71-2.43-2.82.93c-4.23,1.39-8.28,2.1-12.01,2.1-6.98,0-13.13-2.38-18.79-7.29l-.2-.18c-1.4-1.21-3.75-3.25-4.01-4.44-2.53-11.27-11.16-11.91-17.46-12.37-7.56-.56-12.85-4.48-15.73-11.67-1.63-4.07-5.92-6.71-7.69-7.65-10.46-5.58-14.69-14.56-11.6-24.64,2.05-6.69,6.52-10.4,13.26-11.03,6.9-.64,9.76-4.11,11.93-9.11C39.66,19.29,64.51,4,90.63,4c4.35,0,8.68.43,12.88,1.26,4.93.98,9.71,3.25,14.77,5.65,2.85,1.35,5.79,2.75,8.8,3.92,2.52.98,4.82,1.48,6.84,1.48,1.08,0,2.1-.14,3.02-.43,3.19-.99,6.16-1.49,8.82-1.49,8.67,0,14.08,5.36,16.09,15.94.66,3.46,4.04,6.65,6.94,7.74,19.23,7.25,29.62,24.44,27.78,45.98-1.98,23.13-13.74,36.71-37.01,42.75-.18.05-.45.07-.79.07-.44,0-.95-.04-1.49-.08-.64-.05-1.36-.1-2.11-.1s-1.41.05-2.04.16c-2.37.4-5.58,1.38-7.44,3.73-7.48,9.49-15.8,14.51-24.04,14.51Z"/>
    <path vector-effect="non-scaling-stroke" d="m90.63,8c4.09,0,8.16.4,12.1,1.19,4.45.89,9.01,3.05,13.84,5.35,2.91,1.38,5.92,2.81,9.07,4.03,2.98,1.16,5.77,1.75,8.29,1.75,1.48,0,2.89-.2,4.2-.61,2.81-.87,5.38-1.31,7.64-1.31,2.67,0,9.75,0,12.16,12.69.96,5.07,5.49,9.24,9.46,10.74,17.46,6.58,26.88,22.24,25.2,41.9-1.83,21.42-12.26,33.51-33.81,39.16h0c-.29,0-.72-.03-1.19-.07-.71-.05-1.51-.11-2.41-.11-.96,0-1.85.07-2.71.22-3.06.52-7.27,1.84-9.91,5.19-4.67,5.92-12.09,12.99-20.9,12.99-9.28,0-16.75-7.86-21.38-14.45l-3.41-4.85-5.64,1.85c-3.83,1.26-7.45,1.9-10.76,1.9-5.98,0-11.27-2.07-16.16-6.31l-.2-.18c-.83-.72-2.32-2.01-2.83-2.71-3.31-13.76-14.78-14.61-20.97-15.06-5.99-.44-10.01-3.44-12.31-9.17-2.04-5.11-6.84-8.27-9.52-9.69-5.06-2.7-13.05-8.88-9.66-19.93,1.6-5.2,4.62-7.74,9.81-8.22,9.41-.88,12.98-6.31,15.23-11.51,8.86-20.47,32.2-34.76,56.77-34.76m0-8C63.19,0,36.8,15.83,26.51,39.59c-1.86,4.31-3.8,6.27-8.63,6.72-8.38.78-14.17,5.54-16.72,13.84-3.68,12,1.46,22.9,13.54,29.34,2.33,1.24,4.94,3.3,5.86,5.61,3.54,8.84,10.33,13.52,19.15,14.17,6.94.51,12.07,1.33,13.85,9.26.57,2.55,3.31,4.85,5.5,6.76,6.56,5.69,13.72,8.27,21.41,8.27,4.27,0,8.69-.8,13.26-2.3,8.37,11.92,18.11,17.85,27.93,17.85s18.77-5.36,27.18-16.03c1.01-1.29,3.21-1.96,4.97-2.26.45-.08.9-.1,1.37-.1,1.19,0,2.42.18,3.59.18.61,0,1.22-.05,1.79-.2,22.71-5.9,37.69-19.41,39.99-46.28,1.98-23.18-9.53-42.22-30.35-50.07-1.85-.7-4.07-2.91-4.42-4.74-2.39-12.58-9.44-19.19-20.02-19.19-3.05,0-6.39.55-10,1.66-.57.18-1.19.25-1.84.25-1.78,0-3.76-.57-5.39-1.21-8.13-3.16-15.85-8.09-24.24-9.77-4.54-.91-9.12-1.34-13.67-1.34h0Z"/>
  </g>
</svg>